<?xml version="1.0" standalone="no"?><!DOCTYPE svg PUBLIC "-//W3C//DTD SVG 1.1//EN" "http://www.w3.org/Graphics/SVG/1.1/DTD/svg11.dtd"><svg class="icon" width="16px" height="16.00px" viewBox="0 0 1024 1024" version="1.1" xmlns="http://www.w3.org/2000/svg"><path d="M435.2 542.4h51.2v270.4h-91.2c-9.6 0-19.2 1.6-28.8-1.6-20.8-4.8-38.4-17.6-51.2-33.6-9.6-11.2-14.4-27.2-17.6-41.6-3.2-16-3.2-32 0-46.4 4.8-17.6 14.4-33.6 27.2-46.4 11.2-11.2 24-19.2 38.4-22.4 6.4-1.6 11.2-3.2 17.6-3.2h54.4V542.4m-57.6 123.2c-11.2 4.8-20.8 12.8-25.6 22.4-3.2 9.6-4.8 19.2-4.8 28.8 0 12.8 3.2 24 9.6 33.6 8 11.2 22.4 19.2 36.8 17.6h41.6v-107.2h-46.4c-3.2 1.6-8 3.2-11.2 4.8z m137.6-43.2h51.2v126.4c0 4.8 1.6 11.2 4.8 14.4 3.2 4.8 9.6 6.4 16 6.4h54.4v-147.2h51.2v190.4h-124.8c-12.8-1.6-27.2-6.4-36.8-14.4-11.2-9.6-17.6-25.6-17.6-40 1.6-46.4 1.6-91.2 1.6-136z" fill="#FCFBFF" /><path d="M412.8 94.4c16-3.2 32 1.6 44.8 9.6 20.8 14.4 33.6 35.2 41.6 59.2 12.8 36.8 11.2 76.8-3.2 112-6.4 17.6-17.6 33.6-32 46.4-11.2 9.6-27.2 16-41.6 17.6-16 0-30.4-4.8-43.2-14.4-19.2-14.4-32-36.8-38.4-59.2-9.6-33.6-9.6-72 3.2-105.6 8-20.8 19.2-38.4 36.8-51.2 11.2-8 20.8-12.8 32-14.4zM643.2 112c11.2-1.6 22.4 0 32 4.8 14.4 6.4 25.6 17.6 35.2 30.4 12.8 17.6 22.4 38.4 25.6 59.2 1.6 16 0 30.4-4.8 44.8-3.2 19.2-11.2 36.8-20.8 51.2-9.6 12.8-20.8 25.6-35.2 33.6-12.8 8-28.8 11.2-43.2 9.6-17.6-1.6-36.8-8-49.6-20.8-14.4-12.8-20.8-30.4-25.6-48-3.2-19.2-3.2-38.4-1.6-57.6 3.2-17.6 9.6-33.6 19.2-48 9.6-16 20.8-28.8 33.6-41.6 9.6-6.4 22.4-14.4 35.2-17.6zM228.8 276.8c16-3.2 33.6 0 49.6 8 22.4 12.8 38.4 32 49.6 54.4 3.2 9.6 8 19.2 8 30.4 3.2 25.6 1.6 52.8-4.8 76.8C326.4 464 316.8 480 304 491.2c-16 14.4-38.4 22.4-60.8 22.4-17.6 0-36.8-6.4-49.6-19.2-17.6-16-28.8-38.4-35.2-60.8-3.2-16-6.4-32-3.2-48 3.2-27.2 11.2-52.8 27.2-76.8 9.6-16 27.2-28.8 46.4-32zM768 336c19.2-3.2 41.6 0 59.2 9.6 16 9.6 28.8 24 38.4 40 6.4 14.4 12.8 28.8 12.8 44.8 0 22.4 1.6 44.8-3.2 65.6-3.2 14.4-9.6 30.4-19.2 41.6-9.6 11.2-22.4 20.8-36.8 24-14.4 3.2-30.4 4.8-44.8 3.2-17.6-1.6-35.2-6.4-49.6-17.6-12.8-9.6-20.8-24-25.6-38.4-6.4-19.2-6.4-41.6-6.4-62.4 0-22.4 3.2-43.2 12.8-64 6.4-14.4 16-27.2 30.4-36.8 9.6-4.8 20.8-8 32-9.6zM499.2 416c20.8-3.2 41.6 1.6 59.2 9.6 28.8 12.8 51.2 36.8 67.2 64 20.8 30.4 44.8 57.6 70.4 83.2 24 24 49.6 48 76.8 70.4 4.8 3.2 9.6 8 12.8 11.2 20.8 20.8 32 48 35.2 76.8 3.2 30.4-4.8 60.8-16 88-9.6 20.8-25.6 36.8-44.8 48-27.2 14.4-59.2 17.6-89.6 17.6-30.4-1.6-59.2-6.4-88-16-35.2-9.6-70.4-11.2-105.6-8-16 1.6-32 6.4-49.6 9.6-36.8 6.4-75.2 8-112 6.4-30.4-1.6-60.8-16-80-41.6-11.2-14.4-20.8-32-25.6-49.6-4.8-17.6-8-35.2-8-52.8 1.6-20.8 6.4-41.6 17.6-59.2 14.4-27.2 38.4-49.6 62.4-68.8 6.4-6.4 14.4-9.6 20.8-17.6 11.2-11.2 24-20.8 35.2-32 20.8-20.8 41.6-43.2 57.6-67.2 4.8-6.4 8-14.4 14.4-20.8 20.8-27.2 54.4-48 89.6-51.2m-64 126.4v75.2h-54.4c-6.4 0-12.8 1.6-17.6 3.2-14.4 4.8-27.2 12.8-38.4 22.4-12.8 12.8-22.4 28.8-27.2 46.4-3.2 16-3.2 32 0 46.4 3.2 14.4 8 30.4 17.6 41.6 12.8 16 30.4 28.8 51.2 33.6 9.6 1.6 19.2 1.6 28.8 1.6h91.2V542.4h-51.2m80 80v136c0 14.4 6.4 30.4 17.6 40 9.6 9.6 24 14.4 36.8 14.4h124.8V622.4h-51.2v147.2h-54.4c-6.4 0-11.2-1.6-16-6.4-3.2-4.8-4.8-9.6-4.8-14.4v-126.4h-52.8z" fill="#306CFF" /><path d="M377.6 665.6c3.2-1.6 6.4-3.2 11.2-3.2h46.4v107.2h-41.6c-14.4 0-28.8-6.4-36.8-17.6-6.4-9.6-11.2-22.4-9.6-33.6 0-9.6 1.6-19.2 4.8-28.8 6.4-12.8 16-19.2 25.6-24z" fill="#306CFF" /></svg>