<?xml version="1.0" encoding="utf-8"?>
<!-- Generator: Adobe Illustrator 22.1.0, SVG Export Plug-In . SVG Version: 6.00 Build 0)  -->
<svg version="1.1" id="图层_1" xmlns="http://www.w3.org/2000/svg" xmlns:xlink="http://www.w3.org/1999/xlink" x="0px" y="0px"
	 viewBox="0 0 16 16" style="enable-background:new 0 0 16 16;" xml:space="preserve">
<style type="text/css">
	.st0{display:none;}
	.st1{display:inline;fill:#337AB7;}
	.st2{display:inline;fill:#0F2B46;}
	.st3{display:inline;fill:#142C46;}
	.st4{display:inline;fill:#FFFFFF;}
	.st5{fill:#0D0944;}
</style>
<g class="st0">
	<path class="st1" d="M15.9,7.9C15.9,3.5,12.3,0,8,0C3.6,0,0,3.6,0,7.9s3.6,7.9,7.9,7.9c1,0,2-0.2,3-0.6c1.2-0.5,2.3-1.3,3.1-2.3
		C15.2,11.6,15.9,9.9,15.9,7.9z M10.6,14.7C9.7,15,8.9,15.2,8,15.2C4,15.2,0.8,12,0.8,8S4,0.7,8,0.7s7.2,3.2,7.2,7.2
		c0,1.8-0.6,3.4-1.7,4.7C12.7,13.5,11.7,14.2,10.6,14.7z"/>
	<path class="st1" d="M7.8,10.9c0,0-2.9,0-4.5-1.4l-0.1,2c0,0,9.5,3.4,9.6-2.1c0,0,0.2-1.3-3.2-2.2c0,0-1.4-0.3-2.9-1.2
		c0,0-0.8-1,1.6-0.8c2.8,0.2,4.3,1,4.3,1V4.4c0,0-6.5-2.4-9,0.4c0,0-0.8,1.3,0,2.1s2.6,1.8,4.9,2.4C8.6,9.2,11.6,10.6,7.8,10.9z"/>
</g>
<g class="st0">
	<path class="st2" d="M1.6,4.1v6.3c0,0.3,0.2,0.6,0.5,0.8l5.4,3.2c0.3,0.2,0.6,0.2,0.9,0l5.4-3.2c0.3-0.2,0.5-0.5,0.5-0.8V4.1
		c0-0.3-0.2-0.6-0.5-0.8L8.4,0.1C8.1,0,7.8,0,7.5,0.1L2,3.3C1.8,3.5,1.6,3.8,1.6,4.1z"/>
	<path class="st2" d="M10.2,16v-1.4v-1.3L7,14.1"/>
	<path class="st3" d="M10.1,13.2l0.6-0.2l-0.2,0.1c-0.1,0.1-0.2,0.2-0.2,0.4v0.3L10.1,13.2z"/>
	<path class="st4" d="M5.7,4.4c0.4-0.4,1-0.4,1.4,0s0.4,1,0,1.4s-0.9,0.4-1.3,0C5.4,5.4,5.4,4.7,5.7,4.4z"/>
	<path class="st4" d="M9.8,6.7c0.4-0.4,0.9-0.4,1.3,0c0.4,0.4,0.4,1,0,1.4s-0.9,0.4-1.3,0S9.4,7.1,9.8,6.7z"/>
	<path class="st4" d="M5.7,9.3c0.4-0.4,0.9-0.4,1.3,0s0.4,1,0,1.4s-0.9,0.4-1.3,0C5.4,10.3,5.4,9.6,5.7,9.3z"/>
	<path class="st4" d="M6.9,5.6l2.7,1.6L10,6.9L7.3,5.3L6.9,5.6z"/>
	<path class="st4" d="M9.8,8.3L7.3,9.7L6.9,9.5L9.3,8L9.8,8.3z"/>
</g>
<rect class="st5" width="16" height="16"/>
<image style="overflow:visible;" width="209" height="70" xlink:href="C:\Users\00016\Desktop\logo.png"  transform="matrix(7.642858e-02 0 0 7.642858e-02 -3.678674e-02 5.3375)">
</image>
</svg>
